<svg width="614" height="92" viewBox="0 0 614 92" fill="none" xmlns="http://www.w3.org/2000/svg">
<path fill-rule="evenodd" clip-rule="evenodd" d="M87.1991 16.7828C88.6492 15.4195 87.7662 12.6827 85.7765 12.7302C72.7673 13.0406 44.2676 14.3241 31 19.6311C12 27.2312 1.23475 43.6972 0 60.6311C0.350058 67.9824 2.72204 74.05 6.30092 78.7235C9.56457 73.5595 18.1147 60.5164 26 52.6311C32.4858 46.1453 38.8909 42.3041 46.0544 38.008C46.6058 37.6773 47.1616 37.344 47.7224 37.0065C48.7789 36.3706 50.3695 38.3229 49.5214 39.2181C42.4974 46.6323 33.0243 57.3592 27.5 66.6311C23.3627 73.5751 18.5262 84.5938 17.296 87.4415C22.4363 89.7661 28.1284 90.5354 33.5 89.6313C62.5911 84.7347 67.2915 66.7301 72.0701 48.4257C75.0681 36.9418 78.097 25.3399 87.1991 16.7828Z" fill="#2D8C50"/>
<path d="M126.017 91.3169C119.257 91.3169 113.419 89.9122 108.502 87.1027C103.615 84.264 99.8541 80.2546 97.2203 75.0746C94.5864 69.8654 93.2694 63.7343 93.2694 56.6814C93.2694 49.7455 94.5864 43.6582 97.2203 38.4197C99.8834 33.152 103.6 29.0548 108.37 26.1283C113.141 23.1725 118.745 21.6946 125.183 21.6946C129.339 21.6946 133.261 22.3677 136.948 23.7139C140.665 25.0308 143.942 27.0794 146.781 29.8596C149.649 32.6398 151.903 36.1809 153.542 40.483C155.18 44.7557 156 49.8479 156 55.7595V60.6322H100.732V49.921H140.767C140.738 46.8774 140.079 44.1704 138.792 41.7999C137.504 39.4001 135.704 37.5125 133.392 36.137C131.11 34.7616 128.446 34.0738 125.403 34.0738C122.154 34.0738 119.301 34.864 116.843 36.4443C114.384 37.9954 112.468 40.044 111.092 42.5901C109.746 45.1069 109.058 47.8725 109.029 50.8868V60.2371C109.029 64.1587 109.746 67.5242 111.18 70.3337C112.614 73.1139 114.619 75.2502 117.194 76.7428C119.769 78.206 122.784 78.9377 126.237 78.9377C128.549 78.9377 130.641 78.6158 132.514 77.9719C134.387 77.2988 136.012 76.3184 137.387 75.0308C138.762 73.7431 139.801 72.1481 140.504 70.2459L155.341 71.914C154.405 75.8355 152.62 79.2596 149.986 82.1861C147.381 85.0834 144.045 87.3368 139.977 88.9464C135.909 90.5268 131.256 91.3169 126.017 91.3169ZM198.855 91.3169C192.124 91.3169 186.344 89.839 181.516 86.8832C176.716 83.9274 173.014 79.8449 170.409 74.6357C167.834 69.3972 166.546 63.3685 166.546 56.5497C166.546 49.7016 167.863 43.6582 170.497 38.4197C173.131 33.152 176.848 29.0548 181.647 26.1283C186.476 23.1725 192.183 21.6946 198.768 21.6946C204.24 21.6946 209.084 22.7042 213.298 24.7235C217.541 26.7136 220.921 29.5377 223.438 33.1959C225.955 36.8248 227.389 41.0683 227.74 45.9263H212.552C211.937 42.6779 210.474 39.9708 208.162 37.8052C205.879 35.6103 202.821 34.5128 198.987 34.5128C195.739 34.5128 192.885 35.3908 190.427 37.1467C187.969 38.8734 186.052 41.3609 184.676 44.6094C183.33 47.8578 182.657 51.7501 182.657 56.2863C182.657 60.8809 183.33 64.8318 184.676 68.1388C186.022 71.4165 187.91 73.9479 190.339 75.7331C192.797 77.489 195.68 78.367 198.987 78.367C201.328 78.367 203.421 77.928 205.264 77.0501C207.137 76.1428 208.703 74.8405 209.962 73.1431C211.22 71.4457 212.083 69.3825 212.552 66.9535H227.74C227.36 71.7238 225.955 75.9526 223.526 79.6401C221.097 83.2982 217.79 86.1662 213.605 88.2441C209.42 90.2927 204.504 91.3169 198.855 91.3169ZM270.201 91.3169C263.616 91.3169 257.909 89.8683 253.08 86.971C248.252 84.0738 244.506 80.0205 241.843 74.8113C239.209 69.602 237.892 63.5148 237.892 56.5497C237.892 49.5845 239.209 43.4827 241.843 38.2441C244.506 33.0056 248.252 28.9378 253.08 26.0405C257.909 23.1432 263.616 21.6946 270.201 21.6946C276.785 21.6946 282.492 23.1432 287.321 26.0405C292.15 28.9378 295.881 33.0056 298.515 38.2441C301.178 43.4827 302.51 49.5845 302.51 56.5497C302.51 63.5148 301.178 69.602 298.515 74.8113C295.881 80.0205 292.15 84.0738 287.321 86.971C282.492 89.8683 276.785 91.3169 270.201 91.3169ZM270.288 78.5865C273.859 78.5865 276.844 77.6061 279.244 75.6453C281.643 73.6553 283.429 70.9921 284.599 67.6559C285.799 64.3196 286.399 60.6029 286.399 56.5058C286.399 52.3793 285.799 48.648 284.599 45.3117C283.429 41.9462 281.643 39.2684 279.244 37.2784C276.844 35.2883 273.859 34.2933 270.288 34.2933C266.63 34.2933 263.587 35.2883 261.158 37.2784C258.758 39.2684 256.958 41.9462 255.758 45.3117C254.588 48.648 254.002 52.3793 254.002 56.5058C254.002 60.6029 254.588 64.3196 255.758 67.6559C256.958 70.9921 258.758 73.6553 261.158 75.6453C263.587 77.6061 266.63 78.5865 270.288 78.5865Z" fill="#2D8C50"/>
<path d="M344.589 90C337.007 90 331.465 88.2488 327.962 84.7463C324.46 81.2438 322.708 75.7222 322.708 68.1816V38.0808H315.353C313.169 38.0808 312.077 36.9889 312.077 34.805C312.077 32.6623 313.169 31.591 315.353 31.591H322.708V18.3021C322.708 16.1182 323.78 15.0263 325.922 15.0263C328.106 15.0263 329.198 16.1182 329.198 18.3021V31.591H344.712C346.855 31.591 347.926 32.6623 347.926 34.805C347.926 36.9889 346.855 38.0808 344.712 38.0808H329.198V68.1816C329.198 73.9504 330.311 77.9473 332.536 80.1724C334.802 82.3976 338.82 83.5101 344.589 83.5101C345.784 83.5101 346.628 83.7779 347.123 84.3136C347.658 84.8493 347.926 85.6528 347.926 86.7241C347.926 88.908 346.814 90 344.589 90ZM368.31 90C366.127 90 365.035 88.908 365.035 86.7241V34.805C365.035 32.6623 366.127 31.591 368.31 31.591C370.453 31.591 371.525 32.6623 371.525 34.805V44.3235C373.667 40.2029 376.758 37.0507 380.796 34.8668C384.875 32.6829 389.696 31.591 395.259 31.591C397.443 31.591 398.535 32.6623 398.535 34.805C398.535 36.9889 397.443 38.0808 395.259 38.0808C387.924 38.0808 382.238 39.7497 378.2 43.0873C374.162 46.3838 371.937 51.1018 371.525 57.2415V86.7241C371.525 88.908 370.453 90 368.31 90ZM413.487 20.3418C410.643 20.3418 409.222 18.879 409.222 15.9534V13.172C409.222 10.3288 410.643 8.90723 413.487 8.90723H416.268C419.029 8.90723 420.409 10.3288 420.409 13.172V15.9534C420.409 18.879 419.029 20.3418 416.268 20.3418H413.487ZM414.908 90C412.724 90 411.632 88.908 411.632 86.7241V34.805C411.632 32.6623 412.724 31.591 414.908 31.591C417.051 31.591 418.122 32.6623 418.122 34.805V86.7241C418.122 88.908 417.051 90 414.908 90ZM458.206 90C452.355 90 448.049 88.6402 445.288 85.9206C442.569 83.2011 441.209 78.9363 441.209 73.1263V7.48564C441.209 5.34294 442.301 4.27159 444.485 4.27159C446.627 4.27159 447.699 5.34294 447.699 7.48564V73.1263C447.699 77.1232 448.44 79.8634 449.924 81.3468C451.407 82.789 454.147 83.5101 458.144 83.5101C460.369 83.5101 461.482 84.5815 461.482 86.7241C461.523 88.908 460.431 90 458.206 90ZM480.459 90C478.275 90 477.183 88.908 477.183 86.7241V7.48564C477.183 5.34294 478.275 4.27159 480.459 4.27159C482.602 4.27159 483.673 5.34294 483.673 7.48564V40.7386C487.588 34.6402 494.675 31.591 504.935 31.591H508.397C516.102 31.591 521.727 33.3834 525.27 36.9683C528.855 40.512 530.648 46.1366 530.648 53.842V86.7241C530.648 88.908 529.576 90 527.434 90C525.25 90 524.158 88.908 524.158 86.7241V53.842C524.158 47.9496 522.983 43.8496 520.635 41.5421C518.327 39.2346 514.248 38.0808 508.397 38.0808H504.935C498.548 38.0808 493.521 39.0904 489.854 41.1095C486.187 43.1285 484.126 46.2808 483.673 50.5662V86.7241C483.673 88.908 482.602 90 480.459 90ZM567.587 90C561.159 90 556.441 88.5166 553.433 85.5498C550.466 82.5418 548.983 77.8237 548.983 71.3956C548.983 64.9676 550.487 60.2495 553.495 57.2415C556.503 54.2335 561.2 52.7295 567.587 52.7295H595.71C595.627 47.2903 594.391 43.4994 592.001 41.3567C589.653 39.1728 585.635 38.0808 579.949 38.0808H572.779C567.546 38.0808 563.714 38.6371 561.282 39.7497C558.851 40.8622 557.347 42.7577 556.77 45.4361C556.482 46.4662 556.091 47.2285 555.596 47.723C555.143 48.1762 554.401 48.4029 553.371 48.4029C552.3 48.4029 551.455 48.1144 550.837 47.5376C550.26 46.9195 550.054 46.0954 550.219 45.0652C550.754 40.3678 552.876 36.9477 556.585 34.805C560.335 32.6623 565.733 31.591 572.779 31.591H579.949C587.654 31.591 593.279 33.3834 596.822 36.9683C600.407 40.512 602.2 46.1366 602.2 53.842V86.7241C602.2 88.908 601.128 90 598.986 90C596.802 90 595.71 88.908 595.71 86.7241V80.6051C591.754 86.8684 584.687 90 574.509 90H567.587ZM567.587 83.5101H574.509C578.506 83.5101 582.009 83.0774 585.017 82.2121C588.066 81.3056 590.518 79.8634 592.372 77.8855C594.226 75.9077 595.339 73.2705 595.71 69.974V59.2194H567.587C563.013 59.2194 559.84 60.1053 558.068 61.8771C556.338 63.6078 555.472 66.7806 555.472 71.3956C555.472 75.9695 556.338 79.1423 558.068 80.9141C559.84 82.6448 563.013 83.5101 567.587 83.5101Z" fill="#2D8C50"/>
</svg>
